<svg width="27.000977" height="26.994385" viewBox="0 0 27.001 26.9944" fill="none" xmlns="http://www.w3.org/2000/svg" xmlns:xlink="http://www.w3.org/1999/xlink">
	<desc>
			Created with Pixso.
	</desc>
	<defs/>
	<path id="ic_analytics" d="M13.501 0C13.2357 0 12.9814 0.105469 12.7938 0.292969C12.6063 0.480469 12.501 0.734863 12.501 1L12.501 13.5C12.501 14.0522 12.9487 14.5 13.501 14.5L26.001 14.5C26.5532 14.5 27.001 14.0522 27.001 13.5C27.001 11.7271 26.6517 9.97168 25.9734 8.33374C25.2949 6.6958 24.3005 5.20776 23.0469 3.9541C21.7933 2.70044 20.3051 1.70605 18.6672 1.02759C17.0293 0.349121 15.2738 0 13.501 0ZM8.90051 2.9541C9.40662 2.73315 9.63794 2.1438 9.41699 1.6377C9.19617 1.13135 8.60669 0.900146 8.10059 1.12109C6.07947 2.00293 4.30518 3.3667 2.93286 5.09277C1.56042 6.81885 0.631836 8.85498 0.228149 11.0227C-0.175537 13.1907 -0.0419922 15.4246 0.616943 17.5288C1.276 19.6333 2.44055 21.5442 4.00867 23.0945C5.5769 24.645 7.50098 25.7876 9.61279 26.4226C11.7245 27.0574 13.9597 27.1655 16.1228 26.7371C18.286 26.3086 20.3113 25.3567 22.0216 23.9648C23.7319 22.5728 25.0752 20.7832 25.9341 18.752C26.1492 18.2434 25.9111 17.6567 25.4025 17.4417C24.8938 17.2266 24.307 17.4644 24.0919 17.9731C23.3604 19.7034 22.2161 21.2278 20.7592 22.4136C19.3021 23.5994 17.5769 24.4102 15.7343 24.7751C13.8916 25.1401 11.9875 25.0481 10.1886 24.5071C8.38977 23.9663 6.75073 22.9929 5.41479 21.6724C4.07898 20.3516 3.08704 18.7239 2.52563 16.9312C1.96423 15.1384 1.85046 13.2356 2.19434 11.3889C2.53821 9.54224 3.32922 7.80786 4.49829 6.3374C5.66736 4.86719 7.17883 3.70557 8.90051 2.9541ZM14.501 12.5L14.501 2.04346C15.6685 2.14551 16.8156 2.42529 17.9019 2.87549C19.2971 3.45337 20.5648 4.30029 21.6327 5.36816C22.7006 6.43604 23.5476 7.70386 24.1256 9.09912C24.5756 10.1855 24.8555 11.3325 24.9574 12.5L14.501 12.5Z" fill="#FFFFFF" fill-opacity="1.000000" fill-rule="evenodd"/>
</svg>
