<svg width="26.000000" height="10.000000" viewBox="0 0 26 10" fill="none" xmlns="http://www.w3.org/2000/svg" xmlns:xlink="http://www.w3.org/1999/xlink">
	<desc>
			Created with Pixso.
	</desc>
	<defs/>
	<path id="APP" d="M0 10L3.59961 0L5.01477 0L8.61438 10L7.50403 10L6.62561 7.57642L1.98328 7.57642L1.11035 10L0 10ZM9.92493 10L9.92493 0L13.96 0Q14.1123 0 14.301 0.013916C14.4316 0.0185547 14.5623 0.0323486 14.6929 0.055542C15.2396 0.134277 15.7017 0.317139 16.0791 0.604126C16.4613 0.886597 16.7491 1.24304 16.9426 1.67358Q17.2402 2.31946 17.2402 3.10413Q17.2402 3.85754 16.9611 4.48718Q16.952 4.50757 16.9426 4.52783C16.7443 4.95837 16.454 5.31714 16.0718 5.60413C15.6945 5.8866 15.2349 6.06714 14.6929 6.14587C14.5623 6.16431 14.4316 6.17822 14.301 6.1875Q14.1123 6.20142 13.96 6.20142L10.9917 6.20142L10.9917 10L9.92493 10ZM18.6847 0L18.6847 10L19.7515 10L19.7515 6.20142L22.7197 6.20142C22.8213 6.20142 22.9351 6.19678 23.0608 6.1875C23.1914 6.17822 23.322 6.16431 23.4526 6.14587C23.9946 6.06714 24.4542 5.8866 24.8315 5.60413Q25.1381 5.37402 25.3657 5.0824Q25.564 4.82837 25.7024 4.52783C25.9008 4.09717 26 3.62268 26 3.10413Q26 2.31946 25.7024 1.67358C25.5089 1.24304 25.2211 0.886597 24.8389 0.604126C24.4614 0.317139 23.9994 0.134277 23.4526 0.055542C23.322 0.0323486 23.1914 0.0185547 23.0608 0.013916C22.9351 0.00463867 22.8213 0 22.7197 0L18.6847 0ZM10.9917 5.22913L13.9309 5.22913Q14.0615 5.22913 14.2357 5.21533C14.3518 5.20605 14.4656 5.18982 14.5768 5.16663C14.9348 5.09265 15.2275 4.95142 15.455 4.74304C15.6871 4.53467 15.8589 4.28699 15.9702 4Q16.0552 3.78992 16.0988 3.57166Q16.1444 3.34241 16.1444 3.10413Q16.1444 2.86584 16.0988 2.63672Q16.0552 2.41833 15.9702 2.20837C15.8589 1.91663 15.6871 1.66663 15.455 1.45837Q15.1139 1.14587 14.5768 1.03467C14.4656 1.0116 14.3518 0.997681 14.2357 0.993042Q14.0615 0.979126 13.9309 0.979126L10.9917 0.979126L10.9917 5.22913ZM22.6907 5.22913L19.7515 5.22913L19.7515 0.979126L22.6907 0.979126C22.7777 0.979126 22.8794 0.983765 22.9955 0.993042C23.1116 0.997681 23.2253 1.0116 23.3365 1.03467C23.6946 1.10876 23.9873 1.25 24.2147 1.45837C24.4469 1.66663 24.6187 1.91663 24.73 2.20837C24.8461 2.49536 24.9042 2.79395 24.9042 3.10413C24.9042 3.41431 24.8461 3.71301 24.73 4C24.6187 4.28699 24.4469 4.53467 24.2147 4.74304C23.9873 4.95142 23.6946 5.09265 23.3365 5.16663C23.2253 5.18982 23.1116 5.20605 22.9955 5.21533C22.8794 5.22449 22.7777 5.22913 22.6907 5.22913ZM4.297 1.15198L6.2782 6.61804L2.32837 6.61804L4.297 1.15198Z" fill="#FFFFFF" fill-opacity="1.000000" fill-rule="evenodd"/>
</svg>
