<svg width="27.000000" height="24.500000" viewBox="0 0 27 24.5" fill="none" xmlns="http://www.w3.org/2000/svg" xmlns:xlink="http://www.w3.org/1999/xlink">
	<desc>
			Created with Pixso.
	</desc>
	<defs/>
	<path id="ic_burse" d="M9.75 0C10.1804 0 10.5626 0.275391 10.6987 0.683594L17.25 20.3379L20.0513 11.9336C20.1874 11.5254 20.5696 11.25 21 11.25L26 11.25C26.5522 11.25 27 11.6978 27 12.25C27 12.8022 26.5522 13.25 26 13.25L21.7207 13.25L18.1987 23.8164C18.0626 24.2246 17.6804 24.5 17.25 24.5C16.8196 24.5 16.4374 24.2246 16.3013 23.8164L9.75 4.16211L6.94873 12.5664C6.81262 12.9746 6.43042 13.25 6 13.25L1 13.25C0.447754 13.25 0 12.8022 0 12.25C0 11.6978 0.447754 11.25 1 11.25L5.2793 11.25L8.80127 0.683594C8.93738 0.275391 9.31958 0 9.75 0Z" fill="#fff" fill-opacity="1.000000" fill-rule="evenodd"/>
</svg>
