<svg width="22.000000" height="22.000000" viewBox="0 0 22 22" fill="none" xmlns="http://www.w3.org/2000/svg" xmlns:xlink="http://www.w3.org/1999/xlink">
	<desc>
			Created with Pixso.
	</desc>
	<defs/>
	<path d="M2.4292 7.60156C2.4292 3.41895 6.28455 0 11.0012 0C15.7167 0 19.5732 3.42004 19.5732 7.60156L19.5732 9.1958C20.9783 9.60168 22 10.7765 22 12.1541L22 14.3972C22.0012 18.58 18.1445 22 13.428 22L8.57324 22C3.85657 22 0 18.58 0 14.3973L0 12.1541C0 10.7756 1.02283 9.60034 2.4292 9.19519L2.4292 7.60156ZM18.2675 9.04224L18.2675 7.60156C18.2675 4.05945 14.9955 1.15784 11.0012 1.15784C7.00574 1.15784 3.73486 4.05847 3.73486 7.60156L3.73486 9.04224L18.2675 9.04224ZM3.50671 10.2021C2.29797 10.2021 1.30566 11.0822 1.30566 12.1541L1.30566 14.3973C1.30566 17.9406 4.57764 20.8422 8.57324 20.8422L13.428 20.8422C17.4236 20.8422 20.6954 17.9406 20.6943 14.3975L20.6943 12.1541C20.6943 11.0822 19.702 10.2021 18.4933 10.2021L3.50671 10.2021ZM8.3114 14.1852C8.3114 12.921 9.59729 12.0205 11 12.0205C12.403 12.0205 13.6886 12.9222 13.6886 14.1852C13.6886 14.8635 13.3048 15.4429 12.7449 15.8275L12.7449 17.2505C12.7449 18.1058 11.9087 18.7214 10.9988 18.7214C10.0884 18.7214 9.25281 18.1044 9.25281 17.2505L9.25281 15.8269C8.69482 15.4423 8.3114 14.8632 8.3114 14.1852ZM11 13.1785C10.1541 13.1785 9.61719 13.6971 9.61719 14.1852C9.61719 14.5017 9.82935 14.8158 10.2261 15.014L10.5585 15.1802L10.5585 17.2505C10.5585 17.3767 10.7059 17.5636 10.9988 17.5636C11.2922 17.5636 11.4392 17.3773 11.4392 17.2505L11.4392 15.1794L11.7725 15.0135C12.171 14.8152 12.3828 14.5013 12.3828 14.1852C12.3828 13.698 11.8457 13.1785 11 13.1785Z" fill="#FFFFFF" fill-opacity="1.000000" fill-rule="evenodd"/>
</svg>
