<svg width="27.000000" height="27.000000" viewBox="0 0 27 27" fill="none" xmlns="http://www.w3.org/2000/svg" xmlns:xlink="http://www.w3.org/1999/xlink">
	<desc>
			Created with Pixso.
	</desc>
	<defs/>
	<path id="ic_custom" d="M12.865 27L14.1338 27C16.1765 27 17.8359 25.4451 17.8359 23.532L17.8359 22.4229C17.8359 21.9414 18.0979 21.5054 18.5369 21.2559C18.9744 21.0063 19.5085 20.9912 19.9651 21.2104L21.0143 21.7192C21.8922 22.1443 22.8945 22.2212 23.8369 21.9414C24.7808 21.6604 25.5505 21.0542 26.0042 20.2329L26.5865 19.177C27.0387 18.3557 27.1235 17.4163 26.8236 16.5317C26.5236 15.6475 25.8768 14.926 25.0002 14.501C24.5175 14.2666 24.2233 13.8223 24.213 13.3135C24.2028 12.8047 24.4808 12.3508 24.9535 12.0999C26.7314 11.158 27.3591 9.03784 26.3539 7.37329L25.729 6.33936C25.2446 5.53442 24.4515 4.95435 23.496 4.70605C22.5419 4.45801 21.541 4.57178 20.6849 5.02563L20.0118 5.38208C19.5538 5.62622 19.011 5.61938 18.5603 5.37402C18.1082 5.1272 17.8374 4.68555 17.8374 4.19458L17.8374 3.46924C17.8374 1.5564 16.178 0 14.1353 0L12.8665 0C10.8252 0 9.16431 1.5564 9.16431 3.46924L9.16431 4.57715C9.16431 5.05859 8.90234 5.49463 8.46338 5.74414C8.02441 5.99512 7.49036 6.01147 7.03662 5.79077L5.98596 5.28076C5.11243 4.85693 4.11011 4.78027 3.16333 5.05859C2.21802 5.3396 1.44971 5.94702 0.996094 6.76709L0.413696 7.823C-0.524292 9.52197 0.18689 11.6201 1.99854 12.4976C2.48291 12.7322 2.77698 13.1763 2.78723 13.6865C2.79749 14.1953 2.52087 14.6492 2.04675 14.9001C0.270386 15.842 -0.358887 17.9622 0.646362 19.6267L1.26978 20.6633C1.75415 21.467 2.54724 22.0457 3.50281 22.2952C4.45544 22.5435 5.45483 22.4309 6.31384 21.9758L6.98694 21.6191C7.44202 21.3779 7.98486 21.3792 8.43994 21.6289C8.89221 21.8757 9.16284 22.3171 9.16284 22.8081L9.16284 23.532C9.16284 25.4436 10.8237 27 12.865 27ZM9.17896 20.4426C8.71948 20.1931 8.21313 20.0669 7.70691 20.0669C7.21375 20.0669 6.72058 20.1863 6.2699 20.4233L5.5968 20.78C5.07874 21.0557 4.4729 21.1228 3.89636 20.9734C3.31836 20.8225 2.83838 20.4729 2.54578 19.9873L1.9209 18.9521C1.31372 17.947 1.69409 16.6636 2.76819 16.0945C3.71643 15.5911 4.271 14.6821 4.25049 13.6619C4.2301 12.6401 3.64038 11.7502 2.6731 11.2812C1.57703 10.7493 1.14539 9.48096 1.71313 8.45386L2.29553 7.39795C2.56921 6.90283 3.03601 6.53687 3.60669 6.36548C4.17883 6.19531 4.78467 6.24341 5.31287 6.49829L6.36206 7.00854C7.27515 7.45142 8.34485 7.41724 9.2229 6.9165C10.1023 6.41479 10.6262 5.54126 10.6262 4.57715L10.6262 3.46924C10.6262 2.31201 11.63 1.37134 12.865 1.37134L14.1353 1.37134C15.3688 1.37134 16.374 2.31201 16.374 3.46924L16.374 4.19458C16.374 5.1792 16.9155 6.06226 17.8228 6.55859C18.7285 7.05518 19.8173 7.06055 20.7318 6.57642L21.4049 6.21997C21.9215 5.94434 22.5288 5.8772 23.1039 6.02808C23.6833 6.17896 24.1633 6.52856 24.4545 7.01392L25.0808 8.04932C25.6895 9.05444 25.3091 10.3379 24.235 10.907C23.2853 11.4089 22.7307 12.3193 22.7512 13.3396C22.7717 14.3599 23.3613 15.2498 24.3301 15.72C24.8569 15.9766 25.249 16.4126 25.4305 16.9487C25.6119 17.4849 25.5623 18.0525 25.2871 18.5476L24.7047 19.6047C24.431 20.0984 23.9657 20.4661 23.3936 20.636C22.8229 20.8062 22.217 20.7595 21.6874 20.5017L20.6367 19.9929C19.7251 19.55 18.6554 19.5857 17.7759 20.0847C16.8979 20.5852 16.374 21.4602 16.374 22.4229L16.374 23.532C16.374 24.6868 15.3702 25.6287 14.1353 25.6287L12.8665 25.6287C11.6315 25.6287 10.6277 24.688 10.6277 23.532L10.6277 22.8081C10.6277 21.8235 10.0862 20.939 9.17896 20.4426ZM8.96387 13.5002C8.96387 15.8438 10.9993 17.751 13.5001 17.751C16.001 17.751 18.0364 15.8438 18.0364 13.5002C18.0364 11.1567 16.001 9.24927 13.5001 9.24927C10.9993 9.24927 8.96387 11.1567 8.96387 13.5002ZM10.4271 13.5002C10.4271 11.9124 11.8057 10.6206 13.5001 10.6206C15.1946 10.6206 16.5731 11.9124 16.5731 13.5002C16.5731 15.0881 15.1946 16.3799 13.5001 16.3799C11.8057 16.3799 10.4271 15.0881 10.4271 13.5002Z" fill="#FFFFFF" fill-opacity="1.000000" fill-rule="evenodd"/>
</svg>
