<svg width="25.000000" height="25.000000" viewBox="0 0 25 25" fill="none" xmlns="http://www.w3.org/2000/svg" xmlns:xlink="http://www.w3.org/1999/xlink">
	<desc>
			Created with Pixso.
	</desc>
	<defs/>
	<path d="M24.7542 7.53198C24.8989 7.90894 24.9563 8.23926 24.9823 8.45288C24.9885 11.5442 24.9948 14.6348 25 17.7244C25 21.7346 21.7363 25 17.7236 25L7.27637 25C3.26367 25 0 21.7366 0 17.7244L0 7.27563C0 3.26343 3.26367 0 7.27637 0L15.0225 0.00927734C15.3652 0.0187988 15.9174 0.0656738 16.5497 0.279053C17.3507 0.548828 17.8966 0.931152 18.2101 1.20508C19.9821 2.74878 21.7551 4.29248 23.527 5.83618C23.8374 6.10596 24.4146 6.64453 24.7542 7.53198ZM17.7247 23.6147C20.9728 23.6147 23.6135 20.9731 23.6135 17.7273C23.6156 15.0244 23.6166 12.3213 23.6187 9.61841L21.8894 9.61841C17.8705 9.61841 14.6132 6.36108 14.6132 2.34253L14.6132 1.38843L7.27734 1.3916C4.03137 1.3916 1.38965 4.0332 1.38965 7.27881L1.38965 17.7273C1.38965 20.9741 4.03137 23.6147 7.27734 23.6147L17.7247 23.6147ZM16.1423 1.60303C16.0934 1.58643 16.0465 1.5708 16.0017 1.55713L16.0017 2.34375C16.0017 5.59448 18.6372 8.23096 21.8894 8.23096L23.5396 8.23096C23.4552 7.95581 23.3374 7.64648 23.1187 7.31641C23.0083 7.14966 22.8937 7.00708 22.7832 6.88623C19.8706 4.34668 17.6976 2.54468 17.2247 2.19263C16.9247 1.96875 16.5049 1.73022 16.1423 1.60303ZM7.02417 11.113L13.4609 11.113C13.9703 11.113 14.386 10.7402 14.386 10.283C14.386 9.82471 13.9703 9.45068 13.4609 9.45068L7.02417 9.45068C6.51489 9.45068 6.09924 9.82349 6.09924 10.283C6.09924 10.7402 6.51489 11.113 7.02417 11.113ZM16.5881 15.9763L7.02417 15.9763C6.51489 15.9783 6.09924 16.3491 6.09924 16.8086C6.09924 17.2678 6.51489 17.6387 7.02417 17.6387L16.5881 17.6387C17.0975 17.6387 17.5132 17.2659 17.5132 16.8086C17.5122 16.3513 17.0966 15.9763 16.5881 15.9763Z" fill="#FFFFFF" fill-opacity="1.000000" fill-rule="evenodd"/>
</svg>
