<svg width="25.000000" height="25.000000" viewBox="0 0 25 25" fill="none" xmlns="http://www.w3.org/2000/svg" xmlns:xlink="http://www.w3.org/1999/xlink">
	<desc>
			Created with Pixso.
	</desc>
	<defs/>
	<path id="ic_lead" d="M12.5032 25C11.9971 25 10.9594 24.8867 10.1357 24.0652C9.4624 23.3943 9.28943 22.6057 9.24548 22.197L9.22986 17.3079C9.20007 16.8992 9.10938 16.4517 8.96338 16.0237C8.68274 15.2021 8.26306 14.4634 5.10901 11.7834L4.3562 11.1455C3.3313 10.2783 3.12573 10.1045 2.15747 9.17798C0.850464 7.927 0.477661 7.32227 0.245239 6.64551C-0.418213 4.71118 0.463501 2.99219 0.567017 2.80298C0.600952 2.7395 1.4104 1.28687 3.34827 0.466797C4.12378 0.138184 4.89917 0.0427246 4.93176 0.0400391C5.16711 0.0124512 5.401 0 5.63916 0L19.2579 0C19.4989 0 19.7371 0.013916 19.9711 0.0400391C19.9724 0.0400391 20.3184 0.0800781 20.6599 0.160156C23.5391 0.825684 24.5272 2.77808 24.5669 2.86084C24.9524 3.63013 25.2799 4.91284 24.6306 6.63037C24.4152 7.20215 24.126 7.77783 22.7225 9.15161C21.641 10.2134 21.5148 10.3225 20.3083 11.3665L19.7825 11.822C19.7413 11.8564 17.3258 13.8269 16.478 15.521C16.3406 15.7959 16.2229 16.0623 16.2214 16.0679C16.0471 16.511 15.9423 16.9736 15.9451 17.3132C15.9536 18.5601 15.9564 19.5447 15.9578 20.5222L15.9607 22.1377C15.8997 22.6416 15.7012 23.4314 15.0066 24.0942C14.1292 24.9297 13.0389 24.9944 12.6775 24.9932C12.6293 24.9973 12.5712 25 12.5032 25ZM5.6377 1.38086C5.4563 1.38086 5.27478 1.39185 5.099 1.41113C5.099 1.41113 4.49377 1.48853 3.91394 1.73291C2.44958 2.35278 1.823 3.44214 1.81726 3.45337C1.79041 3.50293 1.10571 4.79395 1.59045 6.20801C1.72229 6.59302 1.94067 7.03369 3.15271 8.19336C4.09106 9.09229 4.28955 9.26074 5.28613 10.1045L6.04028 10.7437C8.59912 12.9185 9.53894 13.9497 10.0238 14.9053C10.1967 15.2463 10.3087 15.5916 10.3087 15.5916C10.5638 16.3262 10.6348 16.9751 10.6517 17.4292C10.6545 18.9951 10.6575 20.5608 10.6603 22.1267C10.6815 22.2869 10.778 22.7314 11.1508 23.1016C11.7008 23.6497 12.4634 23.6262 12.6108 23.6165L12.6775 23.615C12.8547 23.6138 13.5039 23.5945 14.0143 23.1099C14.4042 22.7368 14.5161 22.2869 14.5472 22.052L14.5388 20.5264C14.5374 19.5515 14.5345 18.5698 14.526 17.3271C14.5217 16.8135 14.6578 16.1824 14.9073 15.55C14.9172 15.5251 15.0491 15.2283 15.2036 14.9192C16.1832 12.957 18.749 10.8665 18.8582 10.7781L19.3657 10.3376C20.5424 9.32007 20.6656 9.21387 21.7161 8.18237C23.0132 6.90796 23.1691 6.49658 23.2953 6.16504C23.7744 4.89624 23.5562 3.99731 23.2882 3.46436C23.2584 3.40503 22.5212 2.01318 20.3311 1.50635C20.0717 1.44702 19.8123 1.41675 19.8009 1.41528C19.6237 1.39453 19.4408 1.38501 19.2551 1.38501L5.6377 1.38501L5.6377 1.38086Z" fill="#FFFFFF" fill-opacity="1.000000" fill-rule="nonzero"/>
</svg>
