<svg width="27.000000" height="27.000000" viewBox="0 0 27 27" fill="none" xmlns="http://www.w3.org/2000/svg" xmlns:xlink="http://www.w3.org/1999/xlink">
	<desc>
			Created with Pixso.
	</desc>
	<defs/>
	<path id="ic_pay" d="M13.5 0C6.01367 0 0 6.01367 0 13.5C0 20.9863 6.01367 27 13.5 27C20.9863 27 27 20.9863 27 13.5C27 6.01367 20.9863 0 13.5 0ZM13.5 25.2817C6.99548 25.2817 1.59546 20.0046 1.59546 13.3772C1.59546 6.8728 6.87268 1.47266 13.5 1.47266C20.1273 1.47266 25.4045 6.75 25.4045 13.3772C25.4045 20.0046 20.1273 25.2817 13.5 25.2817ZM18.1637 7.48633C18.5319 7.73193 18.7772 7.97729 19.0227 8.34546C19.1455 8.34546 19.2682 8.59082 19.2682 8.83643C19.759 9.94092 19.759 11.4136 19.2682 12.5181L19.0227 13.009C18.7772 13.3772 18.5319 13.6228 18.1637 13.8682C17.55 14.2363 16.9364 14.4819 16.0773 14.6045L11.5364 14.6045L11.5364 16.0774L13.009 16.0774C13.1318 16.0774 13.2545 16.2 13.2545 16.3228L13.2545 17.6726C13.2545 17.7954 13.1318 17.9182 13.009 17.9182L11.6591 17.9182L11.6591 19.8818Q11.6591 20.0659 11.567 20.158Q11.475 20.25 11.2909 20.25L9.57275 20.25C9.32727 20.25 9.20459 20.1272 9.20459 19.8818L9.20459 17.9182L7.60913 17.9182C7.48633 17.9182 7.36365 17.7954 7.36365 17.6726L7.36365 16.3228C7.36365 16.2 7.48633 16.0774 7.60913 16.0774L9.20459 16.0774L9.20459 14.6045L7.60913 14.6045C7.48633 14.6045 7.36365 14.4819 7.36365 14.3591L7.36365 13.009C7.36365 12.8865 7.48633 12.7637 7.60913 12.7637L9.20459 12.7637L9.20459 7.36353C9.20459 6.99536 9.57275 6.75 9.94092 6.75L16.0773 6.75C16.9364 6.8728 17.6727 7.11816 18.1637 7.48633ZM16.6909 12.1499C16.9364 11.9045 17.0591 11.6592 17.1818 11.4136C17.3046 11.1682 17.3046 10.9226 17.3046 10.6772C17.3046 10.4319 17.3046 10.1863 17.1818 9.94092C17.0591 9.69556 16.9364 9.44995 16.6909 9.20459C16.4454 8.95898 16.0773 8.83643 15.7091 8.71362C15.5863 8.59082 15.3409 8.59082 15.2181 8.59082L11.4137 8.59082C11.2909 8.59082 11.2909 8.71362 11.2909 8.71362L11.2909 12.6409C11.2909 12.7637 11.4137 12.7637 11.4137 12.7637L15.2181 12.7637C15.4636 12.6409 15.5863 12.6409 15.7091 12.6409C16.2 12.5181 16.4454 12.3955 16.6909 12.1499ZM3.3136 13.3772C3.3136 12.7637 3.80457 12.2727 4.41821 12.2727C5.15454 12.2727 5.64551 12.7637 5.52271 13.3772C5.52271 13.991 5.03186 14.4819 4.41821 14.4819C3.80457 14.4819 3.3136 13.991 3.3136 13.3772ZM21.4773 13.3772C21.4773 12.7637 21.9681 12.2727 22.5818 12.2727C23.1954 12.2727 23.6864 12.7637 23.6864 13.3772C23.6864 13.991 23.1954 14.4819 22.5818 14.4819C21.9681 14.4819 21.4773 13.991 21.4773 13.3772Z" fill="#FFFFFF" fill-opacity="1.000000" fill-rule="evenodd"/>
</svg>
