<svg width="28.000000" height="20.000000" viewBox="0 0 28 20" fill="none" xmlns="http://www.w3.org/2000/svg" xmlns:xlink="http://www.w3.org/1999/xlink">
	<desc>
			Created with Pixso.
	</desc>
	<defs/>
	<path id="ic_sp" d="M2.82227 8.40393C2.81787 8.4187 2.81384 8.43311 2.80981 8.44714C2.77661 8.44531 2.74329 8.44446 2.70972 8.44446L1.8064 8.44446C0.808716 8.44446 0 9.24036 0 10.2222L0 12.8889C0 13.8707 0.808716 14.6666 1.8064 14.6666L2.70972 14.6666C3.7074 14.6666 4.51611 13.8707 4.51611 12.8889L4.51611 10.2222C4.51611 9.58813 4.17883 9.03149 3.67102 8.7168C3.67712 8.69519 3.68372 8.67224 3.69067 8.64819C3.75452 8.42847 3.85608 8.11133 4.00586 7.72949C4.30591 6.96448 4.79639 5.94629 5.55701 4.9303C7.06995 2.90967 9.6543 0.888916 13.9999 0.888916C18.3456 0.888916 20.9299 2.90967 22.4427 4.9303C23.2035 5.94629 23.6938 6.96448 23.9939 7.72949C24.1437 8.11133 24.2454 8.42847 24.3091 8.64819C24.3162 8.67224 24.3226 8.69519 24.3287 8.71692C23.8212 9.03162 23.4839 9.58813 23.4839 10.2222L23.4839 12.8889C23.4839 13.517 23.8148 14.069 24.3146 14.3853C24.2103 14.4572 24.0973 14.5332 23.9778 14.6108C23.3663 15.0078 22.629 15.4163 22.0177 15.5693C21.8562 15.6097 21.6842 15.6372 21.5045 15.6533C22.1901 14.4397 22.5807 13.0425 22.5807 11.5555C22.5807 6.89185 18.739 3.11108 14 3.11108C9.26099 3.11108 5.41931 6.89185 5.41931 11.5555C5.41931 16.2192 9.26099 20 14 20C16.8367 20 19.3518 18.6454 20.9139 16.5576C21.3739 16.5692 21.8259 16.5345 22.2405 16.4308C23.0072 16.2389 23.8505 15.7584 24.4752 15.3528C24.7938 15.1459 25.0675 14.9506 25.2617 14.8068C25.3357 14.752 25.3983 14.7046 25.4478 14.6666L26.1936 14.6666C27.1912 14.6666 28 13.8707 28 12.8889L28 10.2222C28 9.24036 27.1912 8.44446 26.1936 8.44446L25.2903 8.44446C25.2567 8.44446 25.2233 8.44531 25.1901 8.44714C25.186 8.43311 25.1819 8.4187 25.1776 8.40393C25.1073 8.16187 24.9973 7.81921 24.8365 7.40942C24.5156 6.59106 23.9899 5.49817 23.1699 4.40308C21.5215 2.20142 18.6865 0 13.9999 0C9.31335 0 6.47827 2.20142 4.82983 4.40308C4.00989 5.49817 3.48425 6.59106 3.16321 7.40942C3.00256 7.81921 2.89246 8.16187 2.82227 8.40393ZM20.4603 15.6395C21.2306 14.4619 21.6774 13.0601 21.6774 11.5555C21.6774 7.38269 18.2401 4 14 4C9.75989 4 6.32263 7.38269 6.32263 11.5555C6.32263 15.7284 9.75989 19.1111 14 19.1111C16.3391 19.1111 18.434 18.0817 19.8422 16.4579C19.3767 16.3868 18.9268 16.2861 18.5233 16.1803C17.9597 16.0325 17.4641 15.8682 17.1094 15.7408C16.9696 15.6907 16.8513 15.6461 16.7589 15.6105C16.1921 16.4705 15.0569 16.8672 13.9952 16.5063C12.7526 16.0841 12.0813 14.7838 12.496 13.6022C12.9106 12.4205 14.2542 11.8051 15.4968 12.2273C16.6179 12.6084 17.2739 13.7039 17.087 14.7822C17.1735 14.8157 17.2855 14.8579 17.4188 14.9058C17.7554 15.0265 18.2246 15.182 18.756 15.3214C19.3025 15.4648 19.8922 15.585 20.4603 15.6395ZM1.8064 9.33337L2.70972 9.33337C3.2085 9.33337 3.61292 9.73132 3.61292 10.2222L3.61292 12.8889C3.61292 13.3798 3.2085 13.7778 2.70972 13.7778L1.8064 13.7778C1.30762 13.7778 0.903198 13.3798 0.903198 12.8889L0.903198 10.2222C0.903198 9.73132 1.30762 9.33337 1.8064 9.33337ZM26.1936 9.33337L25.2903 9.33337C24.7915 9.33337 24.3871 9.73132 24.3871 10.2222L24.3871 12.8889C24.3871 13.3798 24.7915 13.7778 25.2903 13.7778L26.1936 13.7778C26.6924 13.7778 27.0968 13.3798 27.0968 12.8889L27.0968 10.2222C27.0968 9.73132 26.6924 9.33337 26.1936 9.33337ZM16.1423 14.8414C15.9 15.532 15.0891 15.9377 14.2902 15.6661C13.4911 15.3947 13.1074 14.5829 13.3497 13.8923C13.592 13.2018 14.403 12.796 15.2019 13.0675C16.001 13.3391 16.3846 14.1508 16.1423 14.8414Z" fill="#FFFFFF" fill-opacity="1.000000" fill-rule="evenodd"/>
</svg>
